HIERARCHY
ROOT Hips
{
	OFFSET 0.000000 0.000000 0.000000
	CHANNELS 6 Xposition Yposition Zposition Zrotation Yrotation Xrotation 
	JOINT LHipJoint
	{
		OFFSET 0.000000 0.000000 0.000000
		CHANNELS 3 Zrotation Yrotation Xrotation
		JOINT LeftUpLeg
		{
			OFFSET 1.363060 -1.794630 0.839290
			CHANNELS 3 Zrotation Yrotation Xrotation
			JOINT LeftLeg
			{
				OFFSET 2.448110 -6.726130 0.000000
				CHANNELS 3 Zrotation Yrotation Xrotation
				JOINT LeftFoot
				{
					OFFSET 2.562200 -7.039590 0.000000
					CHANNELS 3 Zrotation Yrotation Xrotation
					JOINT LeftToeBase
					{
						OFFSET 0.157640 -0.433110 2.322550
						CHANNELS 3 Zrotation Yrotation Xrotation
						End Site
						{
							OFFSET 0.000000 0.000000 0.000000
						}
					}
				}
			}
		}
	}
	JOINT RHipJoint
	{
		OFFSET 0.000000 0.000000 0.000000
		CHANNELS 3 Zrotation Yrotation Xrotation
		JOINT RightUpLeg
		{
			OFFSET -1.305520 -1.794630 0.839290
			CHANNELS 3 Zrotation Yrotation Xrotation
			JOINT RightLeg
			{
				OFFSET -2.542530 -6.985550 0.000000
				CHANNELS 3 Zrotation Yrotation Xrotation
				JOINT RightFoot
				{
					OFFSET -2.568260 -7.056230 0.000000
					CHANNELS 3 Zrotation Yrotation Xrotation
					JOINT RightToeBase
					{
						OFFSET -0.164730 -0.452590 2.363150
						CHANNELS 3 Zrotation Yrotation Xrotation
						End Site
						{
							OFFSET 0.000000 0.000000 0.000000
						}
					}
				}
			}
		}
	}
	JOINT LowerBack
	{
		OFFSET 0.000000 0.000000 0.000000
		CHANNELS 3 Zrotation Yrotation Xrotation
		JOINT Spine
		{
			OFFSET 0.028270 2.035590 -0.193380
			CHANNELS 3 Zrotation Yrotation Xrotation
			JOINT Spine1
			{
				OFFSET 0.056720 2.048850 -0.042750
				CHANNELS 3 Zrotation Yrotation Xrotation
				JOINT Neck
				{
					OFFSET 0.000000 0.000000 0.000000
					CHANNELS 3 Zrotation Yrotation Xrotation
					JOINT Neck1
					{
						OFFSET -0.054170 1.746240 0.172020
						CHANNELS 3 Zrotation Yrotation Xrotation
						JOINT Head
						{
							OFFSET 0.104070 1.761360 -0.123970
							CHANNELS 3 Zrotation Yrotation Xrotation
							End Site
							{
								OFFSET 0.000000 0.000000 0.000000
							}
						}
					}
				}
				JOINT LeftShoulder
				{
					OFFSET 0.000000 0.000000 0.000000
					CHANNELS 3 Zrotation Yrotation Xrotation
					JOINT LeftArm
					{
						OFFSET 3.362410 1.200890 -0.311210
						CHANNELS 3 Zrotation Yrotation Xrotation
						JOINT LeftForeArm
						{
							OFFSET 4.983000 -0.000000 -0.000000
							CHANNELS 3 Zrotation Yrotation Xrotation
							JOINT LeftHand
							{
								OFFSET 3.483560 -0.000000 -0.000000
								CHANNELS 3 Zrotation Yrotation Xrotation
								JOINT LeftFingerBase
								{
									OFFSET 0.000000 0.000000 0.000000
									CHANNELS 3 Zrotation Yrotation Xrotation
									JOINT LeftHandIndex1
									{
										OFFSET 0.715260 -0.000000 -0.000000
										CHANNELS 3 Zrotation Yrotation Xrotation
										End Site
										{
											OFFSET 0.000000 0.000000 0.000000
										}
									}
								}
								JOINT LThumb
								{
									OFFSET 0.000000 0.000000 0.000000
									CHANNELS 3 Zrotation Yrotation Xrotation
									End Site
									{
										OFFSET 0.000000 0.000000 0.000000
									}
								}
							}
						}
					}
				}
				JOINT RightShoulder
				{
					OFFSET 0.000000 0.000000 0.000000
					CHANNELS 3 Zrotation Yrotation Xrotation
					JOINT RightArm
					{
						OFFSET -3.136600 1.374050 -0.404650
						CHANNELS 3 Zrotation Yrotation Xrotation
						JOINT RightForeArm
						{
							OFFSET -5.241900 -0.000000 -0.000000
							CHANNELS 3 Zrotation Yrotation Xrotation
							JOINT RightHand
							{
								OFFSET -3.444170 -0.000000 -0.000000
								CHANNELS 3 Zrotation Yrotation Xrotation
								JOINT RightFingerBase
								{
									OFFSET 0.000000 0.000000 0.000000
									CHANNELS 3 Zrotation Yrotation Xrotation
									JOINT RightHandIndex1
									{
										OFFSET -0.622530 -0.000000 -0.000000
										CHANNELS 3 Zrotation Yrotation Xrotation
										End Site
										{
											OFFSET 0.000000 0.000000 0.000000
										}
									}
								}
								JOINT RThumb
								{
									OFFSET 0.000000 0.000000 0.000000
									CHANNELS 3 Zrotation Yrotation Xrotation
									End Site
									{
										OFFSET 0.000000 0.000000 0.000000
									}
								}
							}
						}
					}
				}
			}
		}
	}
}
MOTION
Frames: 8
Frame Time: 0.008333
-3.366205 16.757092 -1.572075 31.862153 80.898441 28.097714 -11.041588 4.707872 -2.235691 -0.480363 24.138595 4.872407 -1.116479 1.940301 31.153891 0.530051 2.557285 1.785047 0.309000 -0.000000 -74.726200 8.686751 -0.373064 -0.644784 17.795585 -16.161822 -22.887049 1.525837 0.994878 8.997560 -6.680741 -26.366417 -19.879976 -175.787700 0.000000 -10.915300 -1.533429 -5.766667 0.697468 -0.700616 -5.792080 -1.872550 -5.567611 -5.731756 3.125118 9.624566 -18.467398 -9.910963 -2.468456 -0.154065 -0.575407 0.000000 0.000000 0.000000 0.531925 12.900282 1.775915 -29.289322 -8.212427 -0.885795 -2.412201 -41.712097 -0.008506 3.664793 0.876852 0.026234 -0.168264 0.125078 0.000000 0.000000 0.000000 0.000000 0.000000 0.000000 0.000000 16.301294 -18.398377 -0.262208 75.996410 -22.815993 -23.772367 4.733937 7.575335 0.002172 3.543922 1.149504 0.034398 0.112044 0.004371 -0.000000 0.000000 0.000000 0.000000 0.000000 0.000000 0.000000 
-3.230430 16.756814 -1.512957 31.581807 80.639232 27.601445 -11.128568 4.778663 -2.220061 0.194667 24.231335 4.622437 -0.967059 2.074565 32.737521 0.482369 1.580089 3.673421 0.204800 0.000000 -77.340700 8.704822 -0.426529 -0.704621 17.665867 -16.319452 -22.369198 1.527599 0.916266 9.581726 -6.595300 -26.071731 -19.911387 -175.790100 -0.000000 -11.600300 -1.420546 -5.746240 0.702033 -0.671558 -5.777302 -1.876286 -5.535518 -5.719109 3.112602 9.525459 -18.483904 -9.873199 -2.483001 -0.156019 -0.565478 0.000000 0.000000 0.000000 0.396056 13.044948 1.730524 -29.623937 -8.000589 -0.812226 -2.396709 -42.150002 -0.008227 3.630357 0.845131 0.024941 -0.166996 0.123862 0.000000 0.000000 0.000000 0.000000 0.000000 0.000000 0.000000 16.265721 -18.382019 -0.300492 75.669422 -22.819784 -23.873597 4.745730 7.590442 0.002285 3.563705 1.178345 0.035500 0.112629 0.003715 -0.000000 0.000000 0.000000 0.000000 0.000000 0.000000 0.000000 
-3.095749 16.758349 -1.452774 31.104327 80.356981 26.915908 -11.230239 4.840073 -2.191773 0.886120 24.269991 4.262429 -0.801945 2.205789 34.430848 0.459315 0.521698 5.807977 0.014401 -0.000000 -79.813600 8.713385 -0.488904 -0.776066 17.575200 -16.534851 -21.926803 1.547973 0.826929 10.247554 -6.465601 -25.600040 -19.848770 -175.865600 0.000000 -12.105500 -1.293182 -5.714277 0.702833 -0.641471 -5.751839 -1.882051 -5.508260 -5.695581 3.099019 9.439612 -18.494386 -9.834026 -2.499641 -0.158190 -0.555260 0.000000 0.000000 0.000000 0.265934 13.199711 1.680950 -30.041828 -7.769242 -0.731043 -2.385546 -42.574375 -0.007889 3.573172 0.818810 0.023750 -0.165677 0.122245 0.000000 0.000000 0.000000 0.000000 0.000000 0.000000 0.000000 16.244020 -18.350904 -0.339687 75.331109 -22.756101 -23.939403 4.755710 7.619404 0.002442 3.596967 1.226347 0.037304 0.112994 0.002920 -0.000000 0.000000 0.000000 0.000000 0.000000 0.000000 0.000000 
-2.962888 16.761348 -1.391718 30.441979 80.036243 26.059265 -11.341705 4.889421 -2.151706 1.565298 24.243886 3.799281 -0.625668 2.329780 36.207880 0.467790 -0.607813 8.196648 -0.283200 0.000000 -82.000400 8.714422 -0.556925 -0.856185 17.517832 -16.787485 -21.562082 1.583225 0.728286 10.990678 -6.299541 -24.976749 -19.718712 -175.994300 -0.000000 -12.451901 -1.156403 -5.670504 0.699597 -0.611213 -5.715026 -1.890334 -5.485201 -5.660623 3.082844 9.365757 -18.489347 -9.792946 -2.517036 -0.160469 -0.544589 0.000000 0.000000 0.000000 0.144696 13.356583 1.628802 -30.541740 -7.492816 -0.653839 -2.378671 -42.995840 -0.007487 3.488257 0.797003 0.022658 -0.164289 0.120243 0.000000 0.000000 0.000000 0.000000 0.000000 0.000000 0.000000 16.225580 -18.294466 -0.376404 74.993889 -22.619583 -23.985462 4.763059 7.657033 0.002644 3.632983 1.291470 0.039708 0.113213 0.001948 -0.000000 0.000000 0.000000 0.000000 0.000000 0.000000 0.000000 
-2.832506 16.765434 -1.329976 29.620574 79.661942 25.061829 -11.457683 4.924331 -2.101739 2.205358 24.147502 3.245101 -0.445922 2.442441 38.038962 0.511950 -1.802978 10.825904 -0.708800 -0.000000 -83.743100 8.710528 -0.627111 -0.942524 17.486148 -17.057966 -21.269561 1.629207 0.622318 11.801267 -6.105638 -24.230778 -19.549349 -176.155299 -0.000000 -12.658301 -1.014307 -5.615227 0.693858 -0.581213 -5.666802 -1.900534 -5.465157 -5.614229 3.065180 9.301519 -18.464437 -9.752359 -2.532846 -0.162615 -0.534125 0.000000 0.000000 0.000000 0.026035 13.526398 1.576052 -31.109938 -7.176607 -0.578506 -2.376247 -43.412935 -0.007024 3.375262 0.779054 0.021467 -0.162880 0.117897 0.000000 0.000000 0.000000 0.000000 0.000000 0.000000 0.000000 16.198183 -18.208013 -0.408481 74.668965 -22.399487 -24.024636 4.766853 7.697794 0.002893 3.659836 1.372575 0.042613 0.113372 0.000759 -0.000000 0.000000 0.000000 0.000000 0.000000 0.000000 0.000000 
-2.705173 16.770108 -1.267738 28.680235 79.222109 23.967744 -11.572272 4.942636 -2.044535 2.780670 23.979443 2.612600 -0.272915 2.540380 39.894686 0.591807 -3.054241 13.646964 -1.276200 0.000001 -84.870400 8.704690 -0.695898 -1.030627 17.470938 -17.317683 -21.036074 1.680612 0.511912 12.662133 -5.895308 -23.403675 -19.370745 -176.326701 0.000000 -12.757800 -0.872179 -5.549103 0.685911 -0.552111 -5.607389 -1.912698 -5.446988 -5.556713 3.045398 9.244145 -18.414142 -9.712592 -2.545490 -0.164486 -0.523925 0.000000 0.000000 0.000000 -0.091621 13.705907 1.524496 -31.737940 -6.806504 -0.508343 -2.378183 -43.830354 -0.006501 3.232677 0.764259 0.020276 -0.161463 0.115205 0.000000 0.000000 0.000000 0.000000 0.000000 0.000000 0.000000 16.150845 -18.085754 -0.433498 74.367951 -22.092409 -24.066842 4.766347 7.742465 0.003194 3.668792 1.469221 0.045720 0.113534 -0.000689 -0.000000 0.000000 0.000000 0.000000 0.000000 0.000000 0.000000 
-2.581333 16.774938 -1.205121 27.669116 78.709228 22.828308 -11.679793 4.943278 -1.983571 3.270877 23.743589 1.915549 -0.117507 2.622083 41.748618 0.702029 -4.342937 16.574591 -1.984501 -0.000000 -85.168400 8.699702 -0.760100 -1.115680 17.462953 -17.537887 -20.842984 1.732232 0.400639 13.549715 -5.680575 -22.540307 -19.211297 -176.489300 0.000000 -12.787100 -0.734762 -5.473494 0.676285 -0.524374 -5.537747 -1.926598 -5.429559 -5.489097 3.023525 9.190966 -18.336409 -9.674415 -2.553606 -0.165954 -0.514172 0.000000 0.000000 0.000000 -0.211490 13.894075 1.475723 -32.414556 -6.376445 -0.441359 -2.384320 -44.248710 -0.005924 3.061569 0.751716 0.019084 -0.160067 0.112166 0.000000 0.000000 0.000000 0.000000 0.000000 0.000000 0.000000 16.075012 -17.926067 -0.449987 74.100212 -21.696100 -24.116765 4.760906 7.795026 0.003547 3.653788 1.581773 0.049126 0.113738 -0.002430 -0.000000 0.000000 0.000000 0.000000 0.000000 0.000000 0.000000 
-2.461210 16.779497 -1.142230 26.638545 78.121564 21.696080 -11.775449 4.926581 -1.923035 3.662794 23.450211 1.165459 0.011543 2.688604 43.579527 0.832255 -5.634033 19.492576 -2.810000 -0.000000 -84.533700 8.697787 -0.817389 -1.193095 17.454292 -17.693596 -20.667876 1.779577 0.292321 14.436726 -5.472891 -21.684462 -19.095579 -176.628500 0.000000 -12.785000 -0.606382 -5.390267 0.665796 -0.498416 -5.459403 -1.941880 -5.411950 -5.412939 2.999622 9.139835 -18.231771 -9.638294 -2.556413 -0.166943 -0.504966 0.000000 0.000000 0.000000 -0.336388 14.088037 1.430990 -33.127716 -5.883355 -0.372553 -2.394421 -44.665213 -0.005305 2.865007 0.740709 0.017793 -0.158725 0.108762 0.000000 0.000000 0.000000 0.000000 0.000000 0.000000 0.000000 15.965914 -17.730469 -0.457440 73.871815 -21.211471 -24.173023 4.750129 7.862956 0.003958 3.612634 1.711307 0.052536 0.113995 -0.004489 -0.000000 0.000000 0.000000 0.000000 0.000000 0.000000 0.000000 
